<svg width="286" height="73" viewBox="0 0 286 73" fill="none" xmlns="http://www.w3.org/2000/svg">
<path d="M68 11.2288L41.2505 9.16191L36.4735 1.70415L26.894 7.7446L21.012 0L14.6625 4.90154L14.535 12.1231L16.983 17.3621L1.904 24.5752L0 34.5807L8.619 35.0532L9.8685 40.0053L6.851 44.5019L10.319 50.5255L24.497 46.1386L34.51 56.7093L40.834 71.7598L49.181 73L54.502 50.517L63.0785 40.9755L58.293 18.9903L68 11.2288Z" fill="#304820"/>
<path d="M32.8525 35.4159C32.9885 33.9311 33.031 32.3282 32.963 30.5903C35.445 30.8518 38.386 30.8856 41.8965 30.5819L42.8825 30.4975L43.044 29.5273C43.078 29.3249 43.3755 27.4351 43.231 24.7776C44.319 25.4526 45.815 26.2034 47.838 26.9542C50.354 31.9823 49.8695 39.1195 49.538 41.9457C42.7805 40.8236 35.1305 36.7067 32.8525 35.4159Z" fill="#91BC3F"/>
<path d="M40.0094 54.828C33.2009 52.2043 30.1494 48.5007 29.1804 47.075C30.4554 45.0671 31.7984 42.1397 32.5039 38.124C34.5184 39.2291 38.1479 41.0936 42.2364 42.5615C42.8569 48.7538 40.9529 53.1154 40.0094 54.828Z" fill="#91BC3F"/>
<path d="M23.3154 24.2377C24.0549 22.5589 24.6244 20.7451 24.9389 18.7963C27.1404 19.9521 30.0389 20.8126 33.7619 20.7282L34.6799 20.7113L34.9604 19.8424C35.0369 19.5893 35.9974 16.51 35.9974 13.0427C40.9019 18.231 40.8424 25.5285 40.6384 28.1438C28.7809 28.979 24.4799 25.5201 23.3154 24.2377Z" fill="#91BC3F"/>
<path d="M42.8058 21.2512C42.5423 19.9183 42.1513 18.5094 41.5818 17.1005C43.7323 17.2102 47.2853 17.303 51.4333 17.109C55.2923 20.8631 55.5813 24.6258 55.4283 26.4565C46.4778 24.5751 43.4773 21.9599 42.8058 21.2512Z" fill="#91BC3F"/>
<path d="M55.947 18.6697C55.59 18.0876 55.1735 17.497 54.689 16.8981C55.4965 16.8306 56.3125 16.7546 57.137 16.6618L57.732 16.5943L55.828 18.1129L55.947 18.6697Z" fill="#91BC3F"/>
<path d="M35.921 4.9606L39.967 11.2879L53.244 12.3087C53.9325 13.0848 54.468 13.7851 54.8675 14.3587C48.161 14.9408 42.228 14.6287 40.2815 14.5022C39.151 12.6124 37.6125 10.807 35.53 9.26316C35.207 8.06519 34.7055 6.91784 33.9065 5.94766L35.0285 5.239C35.326 5.13777 35.6235 5.0534 35.921 4.9606Z" fill="#91BC3F"/>
<path d="M56.7544 12.5702L62.2454 12.992L58.6244 15.8857L58.1654 14.8818C58.1059 14.7721 57.6809 13.8778 56.7544 12.5702Z" fill="#91BC3F"/>
<path d="M17.952 14.19L16.7705 11.6506L16.8725 5.98983L20.5955 3.12146L26.35 10.7058L31.722 7.32278C34.3825 10.2502 33.303 16.0038 32.759 18.2057C24.65 17.9864 21.556 12.5196 21.42 12.2834L20.264 10.1405L19.1505 12.3087C18.802 12.9836 18.4025 13.6163 17.952 14.19Z" fill="#91BC3F"/>
<path d="M3.6549 27.2832C3.6889 28.8861 3.9354 30.6831 4.5559 32.6235L2.6604 32.5222L3.6549 27.2832Z" fill="#91BC3F"/>
<path d="M10.863 34.8675L10.3785 32.9356L7.3015 32.7669C6.137 29.6538 6.052 26.9626 6.3325 24.9042L19.9155 18.4082L19.125 16.7124C19.5755 16.24 20.0005 15.7254 20.383 15.177C20.91 15.8013 21.6325 16.5268 22.5505 17.2524C21.675 25.9081 14.8835 31.9907 10.863 34.8675Z" fill="#91BC3F"/>
<path d="M11.9763 39.2713C12.8008 41.0514 14.1778 43.2955 16.4643 45.489C16.5068 45.7674 16.5323 46.0289 16.5578 46.2904L12.3248 47.5981C11.4833 46.0373 10.9223 44.426 10.5483 42.9833L12.2738 40.4187L11.9763 39.2713Z" fill="#91BC3F"/>
<path d="M27.0553 45.6155L25.1598 43.6161L20.0258 45.2021C15.4443 41.7095 13.9398 37.7022 13.4978 36.0908C16.2263 34.0155 19.6518 30.8265 22.0998 26.5999C23.4598 27.8063 25.9843 29.3755 30.3788 30.2107C30.7613 37.8625 28.7978 42.7978 27.0553 45.6155Z" fill="#91BC3F"/>
<path d="M40.1708 64.4371L36.6943 56.161C37.7398 56.6587 38.8788 57.1312 40.1283 57.5699L41.0293 57.882L41.5903 57.1143C41.6923 56.9709 43.1798 54.8787 44.1318 51.2426C45.0243 52.2718 46.3163 53.4782 48.1863 54.7015C49.2233 59.8055 47.8718 64.8589 47.1833 66.9258C44.4378 66.3353 42.1003 65.4241 40.1708 64.4371Z" fill="#91BC3F"/>
<path d="M47.6934 69.6254L47.4809 70.5197L42.3979 69.7604L41.6074 67.8791C43.4009 68.5962 45.4324 69.2036 47.6934 69.6254Z" fill="#91BC3F"/>
<path d="M52.4618 49.4625L51.4588 53.7144C46.5373 51.0485 45.0923 48.3911 44.7778 47.6824C44.9138 46.3832 44.9563 44.9659 44.8628 43.4305C46.7413 43.9873 48.6538 44.426 50.4983 44.6284L51.6883 44.755L51.8923 43.5823C51.9178 43.4136 52.1898 41.836 52.3173 39.5497C53.3458 40.1065 54.7313 40.7983 56.3208 41.4395C56.7118 42.3928 56.9923 43.3292 57.1708 44.2319L52.4618 49.4625Z" fill="#91BC3F"/>
<path d="M60.6644 40.3428L60.6389 40.2247C56.9584 39.246 53.6519 37.4238 52.3769 36.6645C52.3344 33.9649 52.0114 30.8434 51.0339 27.9835C52.5469 28.4137 54.2554 28.8187 56.2189 29.1899L57.3494 29.4092L57.6809 28.3125C57.6894 28.2787 57.7319 28.1353 57.7829 27.8991C57.8764 28.051 57.9699 28.2028 58.0549 28.3462L60.6644 40.3428Z" fill="#91BC3F"/>
<path d="M105.719 29.7211H106.871V33.5H100.581L97.1245 26.357L96.0646 27.2326V29.7211H97.1706V33.5H88.4608V29.7211H89.6129V19.3523H88.4608V15.5735H97.1706V19.3523H96.0646V22.3939L99.6361 19.3523H98.1845V15.5735H106.756V19.3523H105.604L101.756 22.5321L105.719 29.7211ZM121.087 29.7211V33.5H115.004V31.9332C114.666 32.4247 114.19 32.8625 113.575 33.2465C112.976 33.6306 112.239 33.8226 111.363 33.8226C110.211 33.8226 109.305 33.5154 108.645 32.9009C107.984 32.2865 107.654 31.4186 107.654 30.2972C107.654 27.3939 110.119 25.9039 115.05 25.8271C115.004 25.3048 114.804 24.9515 114.451 24.7672C114.098 24.5675 113.499 24.4676 112.654 24.4676C111.963 24.4676 111.218 24.5444 110.419 24.698C109.635 24.8363 108.913 25.0283 108.253 25.2741V21.0344C109.067 20.8347 109.95 20.6734 110.903 20.5505C111.855 20.4276 112.784 20.3662 113.691 20.3662C115.98 20.3662 117.615 20.7809 118.599 21.6104C119.582 22.4399 120.073 23.7226 120.073 25.4584V29.7211H121.087ZM115.004 28.1082C114.313 28.1082 113.775 28.2004 113.391 28.3847C113.022 28.5691 112.838 28.8763 112.838 29.3064C112.838 29.5675 112.915 29.7826 113.069 29.9516C113.238 30.1052 113.468 30.182 113.76 30.182C114.159 30.182 114.466 30.013 114.681 29.6751C114.897 29.3371 115.004 28.8609 115.004 28.2465V28.1082ZM137.13 29.7211V33.5H129.848V29.7211H130.816V25.9423C130.816 25.4354 130.709 25.0667 130.494 24.8363C130.278 24.5905 129.956 24.4676 129.526 24.4676C128.604 24.4676 128.143 24.9592 128.143 25.9423V29.7211H129.111V33.5H121.83V29.7211H122.844V24.4676H121.83V20.6888H128.143V22.486C129.249 21.0728 130.632 20.3662 132.291 20.3662C133.566 20.3662 134.518 20.7656 135.148 21.5644C135.793 22.3631 136.116 23.4615 136.116 24.8593V29.7211H137.13ZM151.307 29.7211V33.5H145.224V31.9332C144.886 32.4247 144.41 32.8625 143.795 33.2465C143.196 33.6306 142.459 33.8226 141.583 33.8226C140.431 33.8226 139.525 33.5154 138.864 32.9009C138.204 32.2865 137.874 31.4186 137.874 30.2972C137.874 27.3939 140.339 25.9039 145.27 25.8271C145.224 25.3048 145.024 24.9515 144.671 24.7672C144.318 24.5675 143.719 24.4676 142.874 24.4676C142.182 24.4676 141.437 24.5444 140.639 24.698C139.855 24.8363 139.133 25.0283 138.473 25.2741V21.0344C139.287 20.8347 140.17 20.6734 141.122 20.5505C142.075 20.4276 143.004 20.3662 143.911 20.3662C146.199 20.3662 147.835 20.7809 148.818 21.6104C149.802 22.4399 150.293 23.7226 150.293 25.4584V29.7211H151.307ZM145.224 28.1082C144.533 28.1082 143.995 28.2004 143.611 28.3847C143.242 28.5691 143.058 28.8763 143.058 29.3064C143.058 29.5675 143.135 29.7826 143.288 29.9516C143.457 30.1052 143.688 30.182 143.98 30.182C144.379 30.182 144.686 30.013 144.901 29.6751C145.116 29.3371 145.224 28.8609 145.224 28.2465V28.1082ZM154.952 33.5L151.911 24.4676H150.943V20.6888H158.063V24.4676H157.095L157.924 28.0621H158.155L159.837 20.6888H164.077L165.759 28.0621H165.989L166.796 24.4676H165.828V20.6888H172.51V24.4676H171.542L168.616 33.5H163.017L161.749 27.0944H161.519L160.252 33.5H154.952ZM188.456 29.7211V33.5H181.175V29.7211H182.143V25.9423C182.143 25.4354 182.035 25.0667 181.82 24.8363C181.605 24.5905 181.282 24.4676 180.852 24.4676C179.931 24.4676 179.47 24.9592 179.47 25.9423V29.7211H180.437V33.5H173.156V29.7211H174.17V19.3523H173.156V15.5735H179.47V22.486C180.038 21.7794 180.653 21.2495 181.313 20.8961C181.974 20.5428 182.742 20.3662 183.617 20.3662C184.892 20.3662 185.845 20.7656 186.474 21.5644C187.12 22.3631 187.442 23.4615 187.442 24.8593V29.7211H188.456ZM202.633 29.7211V33.5H196.55V31.9332C196.212 32.4247 195.736 32.8625 195.122 33.2465C194.523 33.6306 193.785 33.8226 192.91 33.8226C191.758 33.8226 190.851 33.5154 190.191 32.9009C189.53 32.2865 189.2 31.4186 189.2 30.2972C189.2 27.3939 191.666 25.9039 196.596 25.8271C196.55 25.3048 196.351 24.9515 195.997 24.7672C195.644 24.5675 195.045 24.4676 194.2 24.4676C193.509 24.4676 192.764 24.5444 191.965 24.698C191.182 24.8363 190.46 25.0283 189.799 25.2741V21.0344C190.613 20.8347 191.497 20.6734 192.449 20.5505C193.401 20.4276 194.331 20.3662 195.237 20.3662C197.526 20.3662 199.162 20.7809 200.145 21.6104C201.128 22.4399 201.62 23.7226 201.62 25.4584V29.7211H202.633ZM196.55 28.1082C195.859 28.1082 195.321 28.2004 194.937 28.3847C194.569 28.5691 194.384 28.8763 194.384 29.3064C194.384 29.5675 194.461 29.7826 194.615 29.9516C194.784 30.1052 195.014 30.182 195.306 30.182C195.705 30.182 196.013 30.013 196.228 29.6751C196.443 29.3371 196.55 28.8609 196.55 28.2465V28.1082ZM220.008 15.5735H227.704V19.3523H226.782L222.658 33.5H215.192L211.068 19.3523H210.146V15.5735H218.994V19.3523H217.796L219.386 27.0713H219.616L221.206 19.3523H220.008V15.5735ZM241.134 29.7211V33.5H235.051V31.9332C234.713 32.4247 234.237 32.8625 233.622 33.2465C233.023 33.6306 232.286 33.8226 231.41 33.8226C230.258 33.8226 229.352 33.5154 228.691 32.9009C228.031 32.2865 227.701 31.4186 227.701 30.2972C227.701 27.3939 230.166 25.9039 235.097 25.8271C235.051 25.3048 234.851 24.9515 234.498 24.7672C234.145 24.5675 233.545 24.4676 232.701 24.4676C232.009 24.4676 231.264 24.5444 230.466 24.698C229.682 24.8363 228.96 25.0283 228.3 25.2741V21.0344C229.114 20.8347 229.997 20.6734 230.949 20.5505C231.902 20.4276 232.831 20.3662 233.737 20.3662C236.026 20.3662 237.662 20.7809 238.645 21.6104C239.628 22.4399 240.12 23.7226 240.12 25.4584V29.7211H241.134ZM235.051 28.1082C234.36 28.1082 233.822 28.2004 233.438 28.3847C233.069 28.5691 232.885 28.8763 232.885 29.3064C232.885 29.5675 232.962 29.7826 233.115 29.9516C233.284 30.1052 233.515 30.182 233.807 30.182C234.206 30.182 234.513 30.013 234.728 29.6751C234.943 29.3371 235.051 28.8609 235.051 28.2465V28.1082ZM241.877 33.523V29.7211H242.89V19.3523H241.877V15.5735H248.19V29.7211H249.204V33.523H241.877ZM249.932 33.523V29.7211H250.946V19.3523H249.932V15.5735H256.246V29.7211H257.26V33.523H249.932ZM264.854 33.8226C262.673 33.8226 260.968 33.2542 259.739 32.1175C258.51 30.9654 257.896 29.291 257.896 27.0944C257.896 24.8977 258.51 23.231 259.739 22.0943C260.968 20.9422 262.673 20.3662 264.854 20.3662C267.02 20.3662 268.579 20.9345 269.532 22.0713C270.5 23.1926 270.983 24.5905 270.983 26.2649V27.9239H263.518V28.0621C263.518 28.6305 263.687 29.0529 264.025 29.3294C264.363 29.5906 264.923 29.7211 265.707 29.7211C266.644 29.7211 267.535 29.652 268.38 29.5138C269.225 29.3755 269.962 29.1989 270.592 28.9838V32.6705C270.054 32.9624 269.263 33.2312 268.218 33.477C267.189 33.7074 266.068 33.8226 264.854 33.8226ZM266.191 25.3893V25.1128C266.191 24.5905 266.076 24.2142 265.845 23.9837C265.63 23.7533 265.3 23.6381 264.854 23.6381C264.409 23.6381 264.071 23.761 263.84 24.0068C263.625 24.2372 263.518 24.6059 263.518 25.1128V25.3893H266.191ZM285.54 20.6888V24.4676H284.664L281.646 32.4631C280.893 34.4754 280.033 35.9808 279.065 36.9793C278.098 37.9931 276.823 38.5001 275.24 38.5001C274.595 38.5001 273.942 38.4309 273.282 38.2927C272.621 38.1698 272.022 37.9931 271.485 37.7627V33.5922H274.664V33.8226C274.664 34.2066 274.864 34.3986 275.263 34.3986C275.617 34.3986 275.886 34.2297 276.07 33.8917L272.429 24.4676H271.554V20.6888H278.397V24.4676H277.614L278.812 28.0621L279.918 24.4676H279.134V20.6888H285.54Z" fill="#284900"/>
<path d="M106.894 42.3523H105.742V52.7211H106.894V56.5H98.1845V52.7211H99.2905V48.9193H96.0646V52.7211H97.1706V56.5H88.4608V52.7211H89.6129V42.3523H88.4608V38.5735H97.1706V42.3523H96.0646V45.8547H99.2905V42.3523H98.1845V38.5735H106.894V42.3523ZM114.633 56.8226C112.451 56.8226 110.746 56.2542 109.517 55.1175C108.289 53.9654 107.674 52.291 107.674 50.0944C107.674 47.8977 108.289 46.231 109.517 45.0943C110.746 43.9422 112.451 43.3662 114.633 43.3662C116.845 43.3662 118.557 43.9499 119.771 45.1174C120.985 46.2694 121.591 47.9285 121.591 50.0944C121.591 52.291 120.977 53.9654 119.748 55.1175C118.519 56.2542 116.814 56.8226 114.633 56.8226ZM114.633 52.7211C115.078 52.7211 115.408 52.6059 115.623 52.3755C115.854 52.1297 115.969 51.7534 115.969 51.2465V48.9423C115.969 48.4354 115.854 48.0667 115.623 47.8363C115.408 47.5905 115.078 47.4676 114.633 47.4676C114.187 47.4676 113.849 47.5905 113.619 47.8363C113.404 48.0667 113.296 48.4354 113.296 48.9423V51.2465C113.296 51.7534 113.404 52.1297 113.619 52.3755C113.849 52.6059 114.187 52.7211 114.633 52.7211ZM145.597 52.7211V56.5H138.316V52.7211H139.284V48.9423C139.284 48.4354 139.176 48.0667 138.961 47.8363C138.746 47.5905 138.423 47.4676 137.993 47.4676C137.072 47.4676 136.611 47.9592 136.611 48.9423V52.7211H137.579V56.5H130.343V52.7211H131.311V48.9423C131.311 48.4354 131.204 48.0667 130.989 47.8363C130.774 47.5905 130.451 47.4676 130.021 47.4676C129.099 47.4676 128.638 47.9592 128.638 48.9423V52.7211H129.606V56.5H122.325V52.7211H123.339V47.4676H122.325V43.6888H128.638V45.486C129.744 44.0728 131.127 43.3662 132.786 43.3662C133.723 43.3662 134.483 43.5889 135.067 44.0344C135.666 44.4645 136.088 45.079 136.334 45.8777C136.887 45.079 137.517 44.4645 138.224 44.0344C138.946 43.6043 139.791 43.3892 140.758 43.3892C142.033 43.3892 142.986 43.7886 143.615 44.5874C144.261 45.3862 144.583 46.4845 144.583 47.8824V52.7211H145.597ZM153.201 56.8226C151.019 56.8226 149.314 56.2542 148.085 55.1175C146.857 53.9654 146.242 52.291 146.242 50.0944C146.242 47.8977 146.857 46.231 148.085 45.0943C149.314 43.9422 151.019 43.3662 153.201 43.3662C155.367 43.3662 156.926 43.9345 157.878 45.0713C158.846 46.1926 159.33 47.5905 159.33 49.2649V50.9239H151.864V51.0621C151.864 51.6305 152.033 52.0529 152.371 52.3294C152.709 52.5906 153.27 52.7211 154.053 52.7211C154.99 52.7211 155.881 52.652 156.726 52.5138C157.571 52.3755 158.308 52.1989 158.938 51.9838V55.6705C158.4 55.9624 157.609 56.2312 156.565 56.477C155.536 56.7074 154.414 56.8226 153.201 56.8226ZM154.537 48.3893V48.1128C154.537 47.5905 154.422 47.2142 154.191 46.9837C153.976 46.7533 153.646 46.6381 153.201 46.6381C152.755 46.6381 152.417 46.761 152.187 47.0068C151.972 47.2372 151.864 47.6059 151.864 48.1128V48.3893H154.537ZM169.9 56.8226C169.117 56.8226 168.418 56.6306 167.803 56.2465C167.204 55.8625 166.713 55.4247 166.329 54.9332V56.5H160.015V52.7211H161.029V42.3523H160.015V38.5735H166.329V45.2556C166.713 44.7641 167.204 44.3263 167.803 43.9422C168.418 43.5582 169.117 43.3662 169.9 43.3662C171.467 43.3662 172.642 43.9499 173.426 45.1174C174.224 46.2848 174.624 47.9438 174.624 50.0944C174.624 52.245 174.224 53.904 173.426 55.0714C172.642 56.2389 171.467 56.8226 169.9 56.8226ZM167.665 52.7211C168.111 52.7211 168.441 52.6059 168.656 52.3755C168.886 52.1297 169.002 51.7534 169.002 51.2465V48.9423C169.002 48.4354 168.886 48.0667 168.656 47.8363C168.441 47.5905 168.111 47.4676 167.665 47.4676C167.22 47.4676 166.882 47.5905 166.651 47.8363C166.436 48.0667 166.329 48.4354 166.329 48.9423V51.2465C166.329 51.7534 166.436 52.1297 166.651 52.3755C166.882 52.6059 167.22 52.7211 167.665 52.7211ZM185.11 43.3662C185.418 43.3662 185.709 43.3969 185.986 43.4584C186.262 43.5198 186.493 43.5966 186.677 43.6888V48.0898C186.047 47.8286 185.371 47.698 184.649 47.698C183.682 47.698 182.937 47.9515 182.414 48.4584C181.892 48.9653 181.631 49.718 181.631 50.7165V52.7211H183.705V56.5H175.318V52.7211H176.331V47.4676H175.318V43.6888H181.631V45.3708C182.061 44.7257 182.553 44.2341 183.106 43.8961C183.659 43.5428 184.327 43.3662 185.11 43.3662ZM194.289 56.8226C192.108 56.8226 190.402 56.2542 189.174 55.1175C187.945 53.9654 187.33 52.291 187.33 50.0944C187.33 47.8977 187.945 46.231 189.174 45.0943C190.402 43.9422 192.108 43.3662 194.289 43.3662C196.455 43.3662 198.014 43.9345 198.966 45.0713C199.934 46.1926 200.418 47.5905 200.418 49.2649V50.9239H192.952V51.0621C192.952 51.6305 193.121 52.0529 193.459 52.3294C193.797 52.5906 194.358 52.7211 195.141 52.7211C196.078 52.7211 196.969 52.652 197.814 52.5138C198.659 52.3755 199.396 52.1989 200.026 51.9838V55.6705C199.489 55.9624 198.698 56.2312 197.653 56.477C196.624 56.7074 195.502 56.8226 194.289 56.8226ZM195.625 48.3893V48.1128C195.625 47.5905 195.51 47.2142 195.28 46.9837C195.065 46.7533 194.734 46.6381 194.289 46.6381C193.843 46.6381 193.505 46.761 193.275 47.0068C193.06 47.2372 192.952 47.6059 192.952 48.1128V48.3893H195.625ZM204.928 56.5L201.887 47.4676H200.919V43.6888H208.039V47.4676H207.071L207.901 51.0621H208.131L209.813 43.6888H214.053L215.735 51.0621H215.965L216.772 47.4676H215.804V43.6888H222.486V47.4676H221.518L218.592 56.5H212.993L211.726 50.0944H211.495L210.228 56.5H204.928ZM239.027 56.8226C236.124 56.8226 233.881 56.0852 232.299 54.6106C230.732 53.1359 229.949 50.778 229.949 47.5367C229.949 41.3462 232.959 38.2509 238.981 38.2509C240.44 38.2509 241.792 38.4276 243.036 38.7809C244.296 39.1342 245.233 39.5259 245.847 39.956V45.7164H240.317V44.0574C240.317 43.4737 240.187 43.0436 239.926 42.7671C239.664 42.4906 239.273 42.3523 238.75 42.3523C238.228 42.3523 237.836 42.4906 237.575 42.7671C237.314 43.0436 237.184 43.4737 237.184 44.0574V51.0161C237.184 51.5998 237.314 52.0299 237.575 52.3064C237.836 52.5829 238.228 52.7211 238.75 52.7211C239.273 52.7211 239.664 52.5829 239.926 52.3064C240.187 52.0299 240.317 51.5998 240.317 51.0161V49.1497H245.847V55.1175C245.218 55.5476 244.281 55.9393 243.036 56.2926C241.807 56.6459 240.471 56.8226 239.027 56.8226ZM246.669 56.523V52.7211H247.683V42.3523H246.669V38.5735H252.983V52.7211H253.997V56.523H246.669ZM269.887 52.7211V56.5H263.573V54.7027C262.467 56.116 261.085 56.8226 259.426 56.8226C258.151 56.8226 257.191 56.4232 256.545 55.6244C255.916 54.8256 255.601 53.7273 255.601 52.3294V47.4676H254.587V43.6888H260.9V51.2465C260.9 51.7534 261.008 52.1297 261.223 52.3755C261.453 52.6059 261.791 52.7211 262.237 52.7211C262.682 52.7211 263.012 52.6059 263.228 52.3755C263.458 52.1297 263.573 51.7534 263.573 51.2465V47.4676H262.329V43.6888H268.873V52.7211H269.887ZM280.406 56.8226C279.623 56.8226 278.924 56.6306 278.309 56.2465C277.71 55.8625 277.219 55.4247 276.835 54.9332V56.5H270.521V52.7211H271.535V42.3523H270.521V38.5735H276.835V45.2556C277.219 44.7641 277.71 44.3263 278.309 43.9422C278.924 43.5582 279.623 43.3662 280.406 43.3662C281.973 43.3662 283.148 43.9499 283.932 45.1174C284.73 46.2848 285.13 47.9438 285.13 50.0944C285.13 52.245 284.73 53.904 283.932 55.0714C283.148 56.2389 281.973 56.8226 280.406 56.8226ZM278.171 52.7211C278.617 52.7211 278.947 52.6059 279.162 52.3755C279.392 52.1297 279.508 51.7534 279.508 51.2465V48.9423C279.508 48.4354 279.392 48.0667 279.162 47.8363C278.947 47.5905 278.617 47.4676 278.171 47.4676C277.726 47.4676 277.388 47.5905 277.157 47.8363C276.942 48.0667 276.835 48.4354 276.835 48.9423V51.2465C276.835 51.7534 276.942 52.1297 277.157 52.3755C277.388 52.6059 277.726 52.7211 278.171 52.7211Z" fill="#92BB05"/>
</svg>
