<svg width="73" height="73" viewBox="0 0 73 73" fill="none" xmlns="http://www.w3.org/2000/svg">
<path d="M71 11.2288L44.2505 9.16191L39.4735 1.70415L29.894 7.7446L24.012 0L17.6625 4.90154L17.535 12.1231L19.983 17.3621L4.904 24.5752L3 34.5807L11.619 35.0532L12.8685 40.0053L9.851 44.5019L13.319 50.5255L27.497 46.1386L37.51 56.7093L43.834 71.7598L52.181 73L57.502 50.517L66.0785 40.9755L61.293 18.9903L71 11.2288Z" fill="#304820"/>
<path d="M35.8524 35.4159C35.9884 33.9311 36.0309 32.3282 35.9629 30.5903C38.4449 30.8518 41.3859 30.8856 44.8964 30.5819L45.8824 30.4975L46.0439 29.5273C46.0779 29.3249 46.3754 27.4351 46.2309 24.7776C47.3189 25.4526 48.8149 26.2034 50.8379 26.9542C53.3539 31.9823 52.8694 39.1195 52.5379 41.9457C45.7804 40.8236 38.1304 36.7067 35.8524 35.4159Z" fill="#91BC3F"/>
<path d="M43.0094 54.828C36.2009 52.2043 33.1494 48.5007 32.1804 47.0749C33.4554 45.0671 34.7984 42.1397 35.5039 38.124C37.5184 39.2291 41.1479 41.0936 45.2364 42.5615C45.8569 48.7538 43.9529 53.1154 43.0094 54.828Z" fill="#91BC3F"/>
<path d="M26.3154 24.2377C27.0549 22.5589 27.6244 20.7451 27.9389 18.7963C30.1404 19.9521 33.0389 20.8126 36.7619 20.7282L37.6799 20.7113L37.9604 19.8424C38.0369 19.5893 38.9974 16.51 38.9974 13.0427C43.9019 18.231 43.8424 25.5285 43.6384 28.1438C31.7809 28.979 27.4799 25.5201 26.3154 24.2377Z" fill="#91BC3F"/>
<path d="M45.8059 21.2512C45.5424 19.9183 45.1514 18.5094 44.5819 17.1005C46.7324 17.2102 50.2854 17.303 54.4334 17.109C58.2924 20.8631 58.5814 24.6258 58.4284 26.4565C49.4779 24.5751 46.4774 21.9599 45.8059 21.2512Z" fill="#91BC3F"/>
<path d="M58.9468 18.6697C58.5898 18.0876 58.1733 17.4971 57.6888 16.8981C58.4963 16.8306 59.3123 16.7547 60.1368 16.6619L60.7318 16.5944L58.8278 18.1129L58.9468 18.6697Z" fill="#91BC3F"/>
<path d="M38.9209 4.9606L42.9669 11.2879L56.2438 12.3087C56.9323 13.0848 57.4678 13.7851 57.8673 14.3587C51.1609 14.9408 45.2279 14.6287 43.2814 14.5022C42.1509 12.6124 40.6124 10.807 38.5299 9.26316C38.2069 8.06519 37.7054 6.91784 36.9064 5.94766L38.0284 5.239C38.3259 5.13777 38.6234 5.0534 38.9209 4.9606Z" fill="#91BC3F"/>
<path d="M59.7544 12.5702L65.2454 12.992L61.6244 15.8857L61.1654 14.8818C61.1059 14.7721 60.6809 13.8778 59.7544 12.5702Z" fill="#91BC3F"/>
<path d="M20.9519 14.19L19.7704 11.6506L19.8724 5.98983L23.5954 3.12146L29.3499 10.7058L34.7219 7.32278C37.3824 10.2502 36.3029 16.0038 35.7589 18.2057C27.6499 17.9864 24.5559 12.5196 24.4199 12.2834L23.2639 10.1405L22.1504 12.3087C21.8019 12.9836 21.4024 13.6163 20.9519 14.19Z" fill="#91BC3F"/>
<path d="M6.6549 27.2832C6.6889 28.8861 6.9354 30.6831 7.5559 32.6235L5.6604 32.5222L6.6549 27.2832Z" fill="#91BC3F"/>
<path d="M13.8629 34.8675L13.3784 32.9356L10.3014 32.7669C9.13688 29.6539 9.05188 26.9627 9.33238 24.9042L22.9154 18.4082L22.1249 16.7125C22.5754 16.24 23.0004 15.7254 23.3829 15.177C23.9099 15.8013 24.6324 16.5269 25.5504 17.2524C24.6749 25.9081 17.8834 31.9907 13.8629 34.8675Z" fill="#91BC3F"/>
<path d="M14.9763 39.2713C15.8008 41.0514 17.1778 43.2955 19.4643 45.489C19.5068 45.7674 19.5323 46.0289 19.5578 46.2904L15.3248 47.5981C14.4833 46.0373 13.9223 44.426 13.5483 42.9834L15.2738 40.4187L14.9763 39.2713Z" fill="#91BC3F"/>
<path d="M30.0554 45.6155L28.1599 43.6161L23.0259 45.2021C18.4444 41.7095 16.9399 37.7022 16.4979 36.0908C19.2264 34.0155 22.6519 30.8265 25.0999 26.5999C26.4599 27.8063 28.9844 29.3755 33.3789 30.2107C33.7614 37.8625 31.7979 42.7978 30.0554 45.6155Z" fill="#91BC3F"/>
<path d="M43.171 64.4371L39.6945 56.161C40.74 56.6587 41.879 57.1312 43.1285 57.5699L44.0295 57.882L44.5905 57.1143C44.6925 56.9709 46.18 54.8787 47.132 51.2426C48.0245 52.2718 49.3165 53.4782 51.1865 54.7015C52.2235 59.8055 50.872 64.8589 50.1835 66.9258C47.438 66.3353 45.1005 65.4241 43.171 64.4371Z" fill="#91BC3F"/>
<path d="M50.6934 69.6255L50.4809 70.5197L45.3979 69.7604L44.6074 67.8791C46.4009 68.5962 48.4324 69.2036 50.6934 69.6255Z" fill="#91BC3F"/>
<path d="M55.462 49.4625L54.459 53.7144C49.5375 51.0485 48.0925 48.3911 47.778 47.6824C47.914 46.3832 47.9565 44.9659 47.863 43.4305C49.7415 43.9873 51.654 44.426 53.4985 44.6284L54.6885 44.755L54.8925 43.5823C54.918 43.4136 55.19 41.836 55.3175 39.5497C56.346 40.1065 57.7315 40.7983 59.321 41.4395C59.712 42.3928 59.9925 43.3292 60.171 44.2319L55.462 49.4625Z" fill="#91BC3F"/>
<path d="M63.6643 40.3428L63.6388 40.2247C59.9583 39.246 56.6518 37.4238 55.3768 36.6645C55.3343 33.9649 55.0113 30.8434 54.0338 27.9835C55.5468 28.4137 57.2553 28.8187 59.2188 29.1899L60.3493 29.4092L60.6808 28.3125C60.6893 28.2787 60.7318 28.1353 60.7828 27.8991C60.8763 28.051 60.9698 28.2028 61.0548 28.3462L63.6643 40.3428Z" fill="#91BC3F"/>
</svg>
